<!DOCTYPE svg PUBLIC "-//W3C//DTD SVG 20010904//EN" "http://www.w3.org/TR/2001/REC-SVG-20010904/DTD/svg10.dtd">
<svg version="1.0" xmlns="http://www.w3.org/2000/svg" width="512px" height="512px" viewBox="0 0 5120 5120" preserveAspectRatio="xMidYMid meet">
<g id="layer101" fill="#B0B0B0" stroke="none">
 <path d="M2205 5090 c-580 -95 -1126 -423 -1480 -890 -288 -381 -455 -847 -459 -1287 -1 -139 1 -154 20 -180 57 -78 141 -95 212 -43 23 16 46 38 52 49 11 21 22 103 40 291 47 507 315 1002 719 1327 686 550 1630 592 2357 104 295 -198 518 -454 675 -776 144 -298 208 -602 196 -940 -20 -554 -247 -1033 -671 -1416 -251 -226 -563 -381 -915 -456 -163 -35 -485 -43 -663 -18 -270 38 -520 124 -738 254 -143 85 -351 251 -315 251 3 0 217 43 477 95 433 87 473 96 499 121 36 34 59 83 59 124 0 71 -74 150 -140 150 -45 0 -267 -41 -765 -141 -443 -90 -590 -123 -620 -143 -40 -26 -68 -92 -61 -142 6 -44 179 -830 248 -1124 22 -96 48 -191 57 -210 33 -71 128 -101 205 -65 32 16 86 87 86 115 0 19 -51 267 -125 603 -31 143 -55 265 -53 273 2 10 33 -7 98 -54 140 -100 231 -154 370 -220 316 -150 638 -222 990 -222 364 0 673 72 1005 234 689 337 1166 991 1271 1746 23 166 15 569 -15 725 -105 556 -409 1058 -847 1401 -321 252 -752 432 -1136 473 -155 17 -504 12 -633 -9z"/>
 <path d="M2480 3264 c-164 -43 -286 -146 -235 -198 24 -24 60 -20 97 13 43 37 71 51 133 67 70 19 153 18 195 -4 108 -54 105 -204 -5 -253 -24 -10 -91 -30 -150 -44 -132 -31 -173 -52 -221 -110 -33 -41 -37 -52 -37 -103 0 -65 17 -104 71 -164 58 -64 126 -90 252 -95 92 -3 112 -1 160 19 68 29 87 65 52 100 -22 22 -22 22 -104 5 -107 -22 -135 -21 -203 4 -89 33 -134 92 -114 149 14 39 58 62 169 88 234 56 325 135 323 279 -1 82 -31 143 -95 194 -83 65 -176 83 -288 53z"/>
 <path d="M3270 3265 c-122 -35 -240 -116 -240 -166 0 -56 52 -65 108 -19 88 70 247 102 325 65 71 -33 106 -120 73 -182 -29 -58 -67 -79 -198 -111 -155 -38 -168 -43 -218 -88 -52 -48 -70 -82 -70 -136 1 -87 70 -181 169 -226 74 -34 214 -42 292 -17 68 22 89 40 89 77 0 44 -32 54 -118 34 -107 -24 -149 -21 -223 17 -103 52 -128 128 -58 178 17 12 81 34 142 49 152 38 215 67 259 121 50 63 62 99 56 172 -6 74 -22 108 -74 159 -77 78 -197 105 -314 73z"/>
 <path d="M1659 3255 c-58 -21 -114 -61 -152 -107 -45 -56 -62 -90 -81 -165 -59 -226 52 -453 274 -561 114 -56 201 -78 251 -63 51 15 91 50 119 104 23 43 23 46 7 71 -26 39 -53 32 -108 -25 -58 -60 -65 -60 -196 1 -106 49 -180 118 -219 203 -24 53 -28 75 -29 152 0 77 4 98 26 145 49 101 118 150 212 150 67 0 129 -37 183 -109 42 -56 76 -71 105 -45 27 24 24 55 -10 101 -82 113 -168 163 -275 162 -39 0 -87 -6 -107 -14z"/>
 </g>
<g id="layer102" fill="#00a1f1" stroke="none">
 <path d="M2480 3264 c-164 -43 -286 -146 -235 -198 24 -24 60 -20 97 13 43 37 71 51 133 67 70 19 153 18 195 -4 108 -54 105 -204 -5 -253 -24 -10 -91 -30 -150 -44 -132 -31 -173 -52 -221 -110 -33 -41 -37 -52 -37 -103 0 -65 17 -104 71 -164 58 -64 126 -90 252 -95 92 -3 112 -1 160 19 68 29 87 65 52 100 -22 22 -22 22 -104 5 -107 -22 -135 -21 -203 4 -89 33 -134 92 -114 149 14 39 58 62 169 88 234 56 325 135 323 279 -1 82 -31 143 -95 194 -83 65 -176 83 -288 53z"/>
 <path d="M3270 3265 c-122 -35 -240 -116 -240 -166 0 -56 52 -65 108 -19 88 70 247 102 325 65 71 -33 106 -120 73 -182 -29 -58 -67 -79 -198 -111 -155 -38 -168 -43 -218 -88 -52 -48 -70 -82 -70 -136 1 -87 70 -181 169 -226 74 -34 214 -42 292 -17 68 22 89 40 89 77 0 44 -32 54 -118 34 -107 -24 -149 -21 -223 17 -103 52 -128 128 -58 178 17 12 81 34 142 49 152 38 215 67 259 121 50 63 62 99 56 172 -6 74 -22 108 -74 159 -77 78 -197 105 -314 73z"/>
 <path d="M1659 3255 c-58 -21 -114 -61 -152 -107 -45 -56 -62 -90 -81 -165 -59 -226 52 -453 274 -561 114 -56 201 -78 251 -63 51 15 91 50 119 104 23 43 23 46 7 71 -26 39 -53 32 -108 -25 -58 -60 -65 -60 -196 1 -106 49 -180 118 -219 203 -24 53 -28 75 -29 152 0 77 4 98 26 145 49 101 118 150 212 150 67 0 129 -37 183 -109 42 -56 76 -71 105 -45 27 24 24 55 -10 101 -82 113 -168 163 -275 162 -39 0 -87 -6 -107 -14z"/>
 </g>

</svg>
